<?xml version="1.0" standalone="no"?>
<!DOCTYPE svg PUBLIC "-//W3C//DTD SVG 20010904//EN"
 "http://www.w3.org/TR/2001/REC-SVG-20010904/DTD/svg10.dtd">
<svg version="1.0" xmlns="http://www.w3.org/2000/svg"
 width="4000.000000pt" height="6000.000000pt" viewBox="0 0 4000.000000 6000.000000"
 preserveAspectRatio="xMidYMid meet">

<g transform="translate(0.000000,6000.000000) scale(0.100000,-0.100000)"
fill="#000000" stroke="none">
<path d="M36590 57569 c-3264 -245 -6322 -1084 -9210 -2529 -1551 -776 -2947
-1667 -4305 -2749 -1089 -868 -2166 -1897 -3098 -2961 -2966 -3385 -4969
-7575 -5717 -11960 -27 -162 -53 -311 -57 -330 l-8 -35 -120 -18 c-2246 -337
-4302 -1257 -5885 -2632 -403 -350 -804 -760 -1146 -1171 -894 -1074 -1572
-2366 -1948 -3714 -554 -1986 -501 -4193 151 -6299 l35 -114 43 169 c401 1558
1448 2814 2977 3569 903 446 1907 701 3103 787 236 17 1031 17 1270 0 242 -17
487 -40 493 -47 3 -3 4 -83 3 -178 -4 -324 29 -750 85 -1082 304 -1822 1382
-3390 2969 -4320 789 -463 1637 -735 2575 -827 209 -20 940 -17 1145 5 991
108 1837 394 2677 906 l37 22 42 -57 c68 -92 300 -438 394 -589 249 -397 538
-948 713 -1360 367 -863 570 -1660 644 -2525 16 -192 16 -755 0 -945 -119
-1374 -653 -2536 -1592 -3464 -125 -124 -132 -133 -100 -126 19 3 144 33 278
66 2288 559 4300 1752 5725 3394 1123 1293 1894 2837 2251 4506 249 1164 297
2404 140 3649 -117 927 -363 1906 -706 2808 -50 130 -91 245 -92 254 0 10 49
57 127 122 633 518 1146 984 1772 1611 634 633 1078 1122 1626 1790 726 884
1452 1918 2065 2942 2698 4503 3866 9699 3354 14923 -261 2657 -968 5294
-2073 7726 -140 309 -378 804 -386 803 -3 -1 -116 -10 -251 -20z m-6330 -7754
c1523 -163 2841 -1075 3515 -2430 514 -1034 609 -2197 270 -3290 -422 -1359
-1478 -2439 -2827 -2889 -1765 -590 -3706 -16 -4868 1440 -527 660 -850 1453
-947 2326 -23 211 -23 666 0 876 114 1025 542 1936 1251 2661 526 538 1195
938 1915 1147 349 101 615 147 1046 178 103 8 505 -4 645 -19z"/>
<path d="M9035 23545 c-215 -371 -393 -675 -396 -675 -3 0 -309 175 -680 389
-371 214 -677 387 -680 383 -4 -4 -352 -605 -774 -1337 -422 -731 -773 -1340
-780 -1351 -13 -21 9 -34 658 -409 370 -213 675 -390 680 -394 4 -4 -169 -312
-384 -685 -268 -465 -388 -681 -380 -686 7 -4 311 -179 677 -390 365 -211 664
-388 664 -392 0 -4 -704 -1228 -1565 -2720 -862 -1491 -1562 -2715 -1558
-2719 13 -12 1345 -780 1349 -777 1 2 168 289 369 638 202 349 377 654 391
677 l24 41 677 -391 c373 -214 679 -391 681 -393 3 -2 -1480 -2577 -1549
-2690 l-19 -31 680 -393 680 -393 -29 -51 c-16 -28 -369 -640 -785 -1361 -664
-1150 -754 -1310 -739 -1319 10 -5 311 -178 668 -384 358 -206 657 -377 665
-379 11 -2 240 387 790 1342 426 740 778 1351 782 1357 4 7 246 -127 685 -380
589 -341 680 -390 690 -376 6 8 359 618 785 1355 425 736 777 1339 782 1339
11 0 1327 -758 1342 -774 9 -8 -86 -181 -378 -685 -316 -547 -387 -676 -376
-686 7 -6 312 -184 677 -394 507 -293 666 -380 672 -369 5 7 534 923 1176
2035 643 1113 1172 2023 1177 2023 6 0 964 -550 1273 -731 l82 -48 777 1347
c427 741 782 1352 788 1359 8 9 170 -80 685 -378 533 -308 677 -387 687 -377
6 7 352 605 769 1328 418 723 767 1329 776 1345 l18 30 -675 390 c-372 214
-677 392 -679 395 -2 3 172 309 386 679 214 371 389 677 389 680 -1 5 -2327
1350 -2659 1538 l-56 32 -389 -675 c-215 -371 -392 -677 -395 -678 -3 -2 -309
171 -679 385 -371 214 -677 387 -682 384 -4 -3 -358 -612 -786 -1355 -429
-742 -782 -1350 -786 -1350 -7 0 -1339 767 -1350 778 -4 4 168 310 383 681
214 371 389 677 389 680 0 3 -610 357 -1355 786 -745 429 -1354 783 -1355 788
0 4 173 308 385 675 212 367 386 671 387 677 0 7 -1125 666 -1330 778 -22 12
-16 24 369 691 216 374 388 681 383 686 -11 10 -2674 1547 -2694 1555 -12 4
-105 -148 -405 -670z"/>
<path d="M3908 8387 c-642 -1113 -1170 -2030 -1173 -2038 -4 -10 176 -119 661
-399 367 -212 672 -386 679 -388 13 -3 2359 4051 2353 4068 -3 10 -1312 770
-1338 776 -11 3 -341 -561 -1182 -2019z"/>
<path d="M977 6449 c-213 -369 -389 -675 -390 -679 -3 -12 1346 -791 1355
-782 24 24 777 1346 771 1353 -7 6 -1343 779 -1347 779 -1 0 -176 -302 -389
-671z"/>
<path d="M11866 6468 c-7 -13 -183 -317 -391 -677 -308 -535 -374 -656 -363
-666 18 -16 1339 -777 1343 -773 2 2 170 293 375 648 205 355 380 659 390 675
l19 31 -632 364 c-347 201 -653 377 -679 393 l-47 27 -15 -22z"/>
<path d="M8563 3888 c-210 -365 -384 -670 -388 -678 -4 -12 153 -107 661 -400
366 -212 672 -386 679 -388 11 -3 785 1323 785 1345 0 8 -1320 775 -1343 781
-7 1 -184 -296 -394 -660z"/>
</g>
</svg>
